<mxfile host="app.diagrams.net" modified="2022-02-28T17:21:31.911Z" agent="5.0 (Windows NT 10.0; Win64; x64) AppleWebKit/537.36 (KHTML, like Gecko) Chrome/98.0.4758.102 Safari/537.36" etag="HBHaf9mZewKEgo9rePqB" version="16.6.4" type="github">
  <diagram id="_gyzYBPdKGYTitw3zvlc" name="Page-1">
    <mxGraphModel dx="1258" dy="699" grid="1" gridSize="10" guides="1" tooltips="1" connect="1" arrows="1" fold="1" page="1" pageScale="1" pageWidth="850" pageHeight="1100" math="0" shadow="0">
      <root>
        <mxCell id="0" />
        <mxCell id="1" parent="0" />
        <mxCell id="rC6D8kPVRXEG7slEaB02-1" value="" style="rounded=0;whiteSpace=wrap;html=1;" vertex="1" parent="1">
          <mxGeometry x="85" y="100" width="680" height="420" as="geometry" />
        </mxCell>
        <mxCell id="rC6D8kPVRXEG7slEaB02-9" value="&lt;font style=&quot;font-size: 14px&quot;&gt;&lt;span&gt;Tutor&lt;/span&gt;&lt;br&gt;&lt;span&gt;Post&lt;/span&gt;&lt;/font&gt;" style="shape=card;whiteSpace=wrap;html=1;" vertex="1" parent="1">
          <mxGeometry x="580" y="300" width="110" height="130" as="geometry" />
        </mxCell>
        <mxCell id="rC6D8kPVRXEG7slEaB02-10" value="&lt;font style=&quot;font-size: 14px&quot;&gt;Tutor&lt;br&gt;Post&lt;/font&gt;" style="shape=card;whiteSpace=wrap;html=1;" vertex="1" parent="1">
          <mxGeometry x="160" y="300" width="110" height="130" as="geometry" />
        </mxCell>
        <mxCell id="rC6D8kPVRXEG7slEaB02-11" value="&lt;font style=&quot;font-size: 14px&quot;&gt;&lt;span&gt;Tutor&lt;/span&gt;&lt;br&gt;&lt;span&gt;Post&lt;/span&gt;&lt;/font&gt;" style="shape=card;whiteSpace=wrap;html=1;" vertex="1" parent="1">
          <mxGeometry x="300" y="300" width="110" height="130" as="geometry" />
        </mxCell>
        <mxCell id="rC6D8kPVRXEG7slEaB02-12" value="&lt;font style=&quot;font-size: 14px&quot;&gt;&lt;span&gt;Tutor&lt;/span&gt;&lt;br&gt;&lt;span&gt;Post&lt;/span&gt;&lt;/font&gt;" style="shape=card;whiteSpace=wrap;html=1;" vertex="1" parent="1">
          <mxGeometry x="440" y="300" width="110" height="130" as="geometry" />
        </mxCell>
        <mxCell id="rC6D8kPVRXEG7slEaB02-14" value="&lt;font style=&quot;font-size: 14px&quot;&gt;Search&lt;/font&gt;" style="rounded=1;whiteSpace=wrap;html=1;" vertex="1" parent="1">
          <mxGeometry x="160" y="190" width="120" height="60" as="geometry" />
        </mxCell>
        <mxCell id="rC6D8kPVRXEG7slEaB02-15" value="&lt;font style=&quot;font-size: 14px&quot;&gt;Category&lt;/font&gt;" style="rounded=1;whiteSpace=wrap;html=1;" vertex="1" parent="1">
          <mxGeometry x="570" y="190" width="120" height="60" as="geometry" />
        </mxCell>
        <mxCell id="rC6D8kPVRXEG7slEaB02-17" value="&lt;font style=&quot;font-size: 18px&quot;&gt;Home page&lt;/font&gt;&lt;br&gt;" style="text;html=1;align=center;verticalAlign=middle;resizable=0;points=[];autosize=1;strokeColor=none;fillColor=none;" vertex="1" parent="1">
          <mxGeometry x="370" y="30" width="110" height="20" as="geometry" />
        </mxCell>
        <mxCell id="rC6D8kPVRXEG7slEaB02-18" value="&lt;font style=&quot;font-size: 14px&quot;&gt;Page&lt;/font&gt;" style="rounded=0;whiteSpace=wrap;html=1;fontSize=18;" vertex="1" parent="1">
          <mxGeometry x="500" y="470" width="190" height="30" as="geometry" />
        </mxCell>
      </root>
    </mxGraphModel>
  </diagram>
</mxfile>
